<svg xmlns="http://www.w3.org/2000/svg" id="devil" enable-background="new 0 0 64 64" viewBox="0 0 64 64">
  <path fill="#4e5293" d="M40.86,4.13l0.99-1.59c0.07-0.11,0.09-0.25,0.06-0.37c-0.03-0.13-0.11-0.24-0.22-0.31l-2.87-1.78c-0.11-0.07-0.25-0.1-0.37-0.07c-0.13,0.03-0.24,0.11-0.31,0.22L37.2,1.75c-1.45-0.9-2.37-1.39-2.42-1.42c-0.23-0.12-0.51-0.04-0.65,0.18l-3.61,5.82c-0.08,0.12-0.1,0.27-0.06,0.4c0.04,0.13,0.13,0.24,0.26,0.3c0.83,0.42,1.63,0.83,2.42,1.25L1.36,59.47C1.21,59.7,1.28,60,1.52,60.14l2.87,1.79C4.47,61.98,4.56,62,4.65,62c0.04,0,0.08,0,0.11-0.01c0.13-0.03,0.24-0.11,0.31-0.22l31.88-51.34C58.82,23.4,61.59,37.84,61.62,38c0.04,0.23,0.24,0.41,0.48,0.41c0.01,0,0.01,0,0.02,0c0.24-0.01,0.44-0.2,0.47-0.44C64.25,22.67,49.54,10.12,40.86,4.13z M38.72,1.17l2.04,1.27l-0.71,1.14c-0.73-0.49-1.41-0.93-2.01-1.31L38.72,1.17z M4.49,60.83l-2.04-1.26L34.01,8.75c0.71,0.39,1.41,0.79,2.09,1.18L4.49,60.83z M34.12,7.69c-0.01,0-0.01-0.01-0.02-0.02c-0.01-0.01-0.03-0.01-0.05-0.02c-0.78-0.42-1.58-0.84-2.41-1.26l3.08-4.96c3.36,1.88,26.47,15.5,27.01,33.5C59.73,29.64,53.36,18.03,34.12,7.69z"></path>
  <path fill="#f1ca6c" d="M40.76,2.44l-0.71,1.14c-0.73-0.49-1.41-0.93-2.01-1.31l0.68-1.1L40.76,2.44z"></path>
  <path fill="#bce0f6" d="M61.73,34.93c-2-5.29-8.37-16.9-27.61-27.24c-0.01,0-0.01-0.01-0.02-0.02c-0.01-0.01-0.03-0.01-0.05-0.02c-0.78-0.42-1.58-0.84-2.41-1.26l3.08-4.96C38.08,3.31,61.19,16.93,61.73,34.93z"></path>
  <path fill="#a8d7e8" d="M60.44,32.01c-3.01-5.97-10.09-15.6-26.32-24.32c-0.01,0-0.01-0.01-0.02-0.02c-0.01-0.01-0.03-0.01-0.05-0.02c-0.78-0.42-1.58-0.84-2.41-1.26l0.48-0.77C48.95,13.33,57.16,25.37,60.44,32.01z"></path>
  <path fill="#cae6f8" d="M61.73,34.93C60.72,17.45,37.9,4.59,34.08,2.46l0.64-1.03C38.08,3.31,61.19,16.93,61.73,34.93z"></path>
  <path fill="#f1ca6c" d="M36.1,9.93L4.49,60.83l-2.04-1.26L34.01,8.75C34.72,9.14,35.42,9.54,36.1,9.93z"></path>
  <path fill="#e2bb62" d="M40.76 2.44l-.71 1.14c-.26-.18-.52-.35-.77-.51l.69-1.12L40.76 2.44zM36.1 9.93L4.49 60.83l-.7-.43L35.31 9.48C35.58 9.63 35.84 9.78 36.1 9.93z"></path>
  <path fill="#4e5293" d="M52.57,49.15c1.72-1.72,2.56-4.4,2.56-8.13c0-0.92-0.05-1.91-0.15-2.96c-0.96-9.65-8-12.08-12.11-12.66c-0.02-0.01-2.1-0.32-3.02-0.15c-0.93-0.17-3.01,0.14-3.03,0.15c-4.11,0.58-11.15,3.01-12.11,12.66c-0.52,5.32,0.27,8.94,2.42,11.09c0.26,0.25,0.31,0.67,0.13,1.02c-0.21,0.43-0.88,1.95-0.36,3.53c0.34,1.04,1.11,1.87,2.3,2.46c0.12,0.06,0.27,0.18,0.31,0.42c0.22,1.28,0.42,3.27,0.54,4.7c0.08,1.09,0.7,2.03,1.63,2.46c1.05,0.49,2.49,0.2,4.15-0.14c1.22-0.24,2.6-0.53,4.01-0.53c1.41,0,2.8,0.29,4.02,0.53c1.03,0.21,1.97,0.4,2.78,0.4c0.51,0,0.97-0.07,1.38-0.26c0.92-0.43,1.54-1.37,1.63-2.46c0.1-1.32,0.3-3.34,0.53-4.7c0.04-0.24,0.19-0.36,0.32-0.43c1.18-0.59,1.95-1.42,2.29-2.46c0.52-1.59-0.15-3.1-0.37-3.51C52.25,49.83,52.31,49.41,52.57,49.15z M51.86,53.38c-0.26,0.79-0.87,1.42-1.8,1.89c-0.46,0.22-0.77,0.64-0.85,1.15c-0.24,1.39-0.44,3.44-0.54,4.79c-0.06,0.73-0.47,1.36-1.07,1.64c-0.76,0.35-2.05,0.09-3.55-0.21c-1.26-0.26-2.69-0.55-4.21-0.55c-1.51,0-2.94,0.29-4.21,0.55c-1.49,0.3-2.77,0.56-3.54,0.2c-0.6-0.27-1.01-0.9-1.06-1.64c-0.12-1.45-0.33-3.48-0.54-4.78c-0.09-0.51-0.4-0.93-0.86-1.15c-0.93-0.46-1.54-1.1-1.8-1.88c-0.4-1.22,0.14-2.43,0.31-2.77c0.37-0.72,0.24-1.61-0.31-2.17c-1.93-1.92-2.63-5.29-2.14-10.3c0.89-8.97,7.45-11.23,11.28-11.78c1.66-0.25,2.82-0.17,2.83-0.17h0.09c0.01,0,1.17-0.08,2.84,0.17c3.83,0.55,10.38,2.81,11.27,11.78c0.49,5.01-0.2,8.37-2.13,10.3c-0.55,0.55-0.69,1.44-0.33,2.17C51.72,50.96,52.26,52.16,51.86,53.38z"></path>
  <path fill="#cdd5dd" d="M51.87,48.45c1.93-1.93,2.62-5.29,2.13-10.3c-0.89-8.97-7.44-11.23-11.27-11.78c-1.67-0.25-2.83-0.17-2.84-0.17H39.8c-0.01,0-1.17-0.08-2.83,0.17c-3.83,0.55-10.39,2.81-11.28,11.78c-0.49,5.01,0.21,8.38,2.14,10.3c0.55,0.56,0.68,1.45,0.31,2.17c-0.17,0.34-0.71,1.55-0.31,2.77c0.26,0.78,0.87,1.42,1.8,1.88c0.46,0.22,0.77,0.64,0.86,1.15c0.21,1.3,0.42,3.33,0.54,4.78c0.05,0.74,0.46,1.37,1.06,1.64c0.77,0.36,2.05,0.1,3.54-0.2c1.27-0.26,2.7-0.55,4.21-0.55c1.52,0,2.95,0.29,4.21,0.55c1.5,0.3,2.79,0.56,3.55,0.21c0.6-0.28,1.01-0.91,1.07-1.64c0.1-1.35,0.3-3.4,0.54-4.79c0.08-0.51,0.39-0.93,0.85-1.15c0.93-0.47,1.54-1.1,1.8-1.89c0.4-1.22-0.14-2.42-0.32-2.76C51.18,49.89,51.32,49,51.87,48.45z M39.82,46.25h0.04c0.48,0.02,0.94,0.34,1.37,0.97c0.86,1.26,1.56,3.77,1.14,4.99c-0.01,0.03-0.02,0.06-0.04,0.09c-0.04,0.06-0.35,0.56-0.94,0.68c-0.26,0.05-0.68,0.04-1.14-0.3c-0.25-0.19-0.56-0.19-0.81,0C39.1,52.93,38.78,53,38.54,53c-0.09,0-0.18-0.01-0.25-0.02c-0.58-0.12-0.89-0.63-0.93-0.68c-0.46-1.3,0.23-3.81,1.09-5.07C38.88,46.6,39.34,46.27,39.82,46.25z M32.98,46.23c-0.01,0-0.01,0-0.01,0c-0.85,0-1.59-0.31-2.19-0.93c-1.43-1.47-1.67-4.25-1.64-5.2c0.04-1.42,1.13-2.13,2.24-2.5c1.11-0.36,2.25-0.37,2.36-0.37c1.87-0.11,3.27,0.29,4.12,1.2c0.72,0.77,1.01,1.84,0.84,3.17C38.4,44.06,35.73,46.23,32.98,46.23z M45.75,57.72h-1.07v0.66c0,0.28-0.22,0.5-0.49,0.5c-0.28,0-0.5-0.22-0.5-0.5v-0.66h-1.18v0.66c0,0.28-0.22,0.5-0.49,0.5c-0.28,0-0.5-0.22-0.5-0.5v-0.66h-1.18v0.66c0,0.28-0.22,0.5-0.49,0.5c-0.28,0-0.5-0.22-0.5-0.5v-0.66h-1.18v0.66c0,0.28-0.22,0.5-0.49,0.5c-0.28,0-0.5-0.22-0.5-0.5v-0.66H36v0.66c0,0.28-0.22,0.5-0.49,0.5c-0.28,0-0.5-0.22-0.5-0.5v-0.66h-1.07c-0.27,0-0.49-0.22-0.49-0.49c0-0.27,0.22-0.49,0.49-0.49h1.07v-0.67c0-0.27,0.22-0.49,0.5-0.49c0.27,0,0.49,0.22,0.49,0.49v0.67h1.18v-0.67c0-0.27,0.22-0.49,0.5-0.49c0.27,0,0.49,0.22,0.49,0.49v0.67h1.18v-0.67c0-0.27,0.22-0.49,0.5-0.49c0.27,0,0.49,0.22,0.49,0.49v0.67h1.18v-0.67c0-0.27,0.22-0.49,0.5-0.49c0.27,0,0.49,0.22,0.49,0.49v0.67h1.18v-0.67c0-0.27,0.22-0.49,0.5-0.49c0.27,0,0.49,0.22,0.49,0.49v0.67h1.07c0.27,0,0.49,0.22,0.49,0.49C46.24,57.5,46.02,57.72,45.75,57.72z M48.91,45.3c-0.6,0.62-1.34,0.93-2.19,0.93c0,0,0,0-0.01,0c-1.38,0-2.73-0.54-3.78-1.39c-1.05-0.85-1.79-2.01-1.94-3.24c-0.17-1.33,0.12-2.4,0.84-3.17c0.85-0.91,2.25-1.31,4.14-1.2c0.16,0.01,4.5,0.02,4.58,2.87C50.58,41.05,50.34,43.83,48.91,45.3z"></path>
  <path fill="#b6c4cd" d="M27.98,38.15c-0.41,5.01,0.18,8.38,1.79,10.3c0.46,0.56,0.57,1.45,0.26,2.17c-0.14,0.34-0.59,1.55-0.26,2.77c0.22,0.78,0.73,1.42,1.51,1.88c0.39,0.22,0.65,0.64,0.72,1.15c0.18,1.3,0.36,3.33,0.46,4.78c0.04,0.74,0.38,1.37,0.88,1.64c0.11,0.06,0.23,0.1,0.37,0.14c-0.65,0.07-1.21,0.05-1.62-0.14c-0.6-0.27-1.01-0.9-1.06-1.64c-0.12-1.45-0.33-3.48-0.54-4.78c-0.09-0.51-0.4-0.93-0.86-1.15c-0.93-0.46-1.54-1.1-1.8-1.88c-0.4-1.22,0.14-2.43,0.31-2.77c0.37-0.72,0.24-1.61-0.31-2.17c-1.93-1.92-2.63-5.29-2.14-10.3c0.89-8.97,7.45-11.23,11.28-11.78c0.84-0.13,1.56-0.17,2.06-0.17c-0.4,0.01-0.95,0.06-1.59,0.17C34.22,26.92,28.73,29.18,27.98,38.15z"></path>
  <path fill="#d9e0e7" d="M51.54,50.62c0.18,0.34,0.72,1.54,0.32,2.76c-0.26,0.79-0.87,1.42-1.8,1.89c-0.46,0.22-0.77,0.64-0.85,1.15c-0.24,1.39-0.44,3.44-0.54,4.79c-0.06,0.73-0.47,1.36-1.07,1.64c-0.4,0.19-0.95,0.2-1.61,0.13c0.13-0.03,0.25-0.07,0.36-0.13c0.5-0.28,0.84-0.91,0.89-1.64c0.09-1.35,0.25-3.4,0.45-4.79c0.07-0.51,0.33-0.93,0.72-1.15c0.78-0.47,1.29-1.1,1.51-1.89c0.33-1.22-0.12-2.42-0.27-2.76c-0.3-0.73-0.19-1.62,0.27-2.17c1.62-1.93,2.2-5.29,1.79-10.3c-0.75-8.97-6.24-11.23-9.45-11.78c-0.64-0.11-1.19-0.16-1.6-0.17c0.5,0,1.22,0.04,2.07,0.17c3.83,0.55,10.38,2.81,11.27,11.78c0.49,5.01-0.2,8.37-2.13,10.3C51.32,49,51.18,49.89,51.54,50.62z"></path>
  <path fill="#4e5293" d="M37.86,38.43c-0.85-0.91-2.25-1.31-4.12-1.2c-0.11,0-1.25,0.01-2.36,0.37c-1.11,0.37-2.2,1.08-2.24,2.5c-0.03,0.95,0.21,3.73,1.64,5.2c0.6,0.62,1.34,0.93,2.19,0.93c0,0,0,0,0.01,0c2.75,0,5.42-2.17,5.72-4.63C38.87,40.27,38.58,39.2,37.86,38.43z M37.73,41.48c-0.22,1.78-2.3,3.77-4.76,3.77c-0.58,0-1.07-0.21-1.49-0.64c-1.09-1.12-1.39-3.51-1.36-4.48c0.05-1.9,3.59-1.92,3.65-1.92c0.19-0.01,0.36-0.02,0.53-0.02c1.3,0,2.28,0.32,2.84,0.92C37.66,39.65,37.85,40.45,37.73,41.48z"></path>
  <path fill="#adb3c6" d="M37.73,41.48c-0.22,1.78-2.3,3.77-4.76,3.77c-0.58,0-1.07-0.21-1.49-0.64c-1.09-1.12-1.39-3.51-1.36-4.48c0.05-1.9,3.59-1.92,3.65-1.92c0.19-0.01,0.36-0.02,0.53-0.02c1.3,0,2.28,0.32,2.84,0.92C37.66,39.65,37.85,40.45,37.73,41.48z"></path>
  <path fill="#4e5293" d="M45.97,37.23c-1.89-0.11-3.29,0.29-4.14,1.2c-0.72,0.77-1.01,1.84-0.84,3.17c0.15,1.23,0.89,2.39,1.94,3.24c1.05,0.85,2.4,1.39,3.78,1.39c0.01,0,0.01,0,0.01,0c0.85,0,1.59-0.31,2.19-0.93c1.43-1.47,1.67-4.25,1.64-5.2C50.47,37.25,46.13,37.24,45.97,37.23z M48.21,44.61c-0.42,0.43-0.91,0.64-1.49,0.64c-1.23,0-2.37-0.5-3.22-1.22c-0.85-0.72-1.43-1.66-1.54-2.55c-0.02-0.2-0.03-0.39-0.03-0.57c0-0.76,0.2-1.36,0.61-1.8c0.64-0.68,1.81-0.99,3.41-0.9c0.03,0,3.57,0.02,3.62,1.92C49.6,41.1,49.3,43.49,48.21,44.61z"></path>
  <path fill="#adb3c6" d="M49.57,40.13c0.03,0.97-0.27,3.36-1.36,4.48c-0.42,0.43-0.91,0.64-1.49,0.64c-1.23,0-2.37-0.5-3.22-1.22c-0.85-0.72-1.43-1.66-1.54-2.55c-0.02-0.2-0.03-0.39-0.03-0.57c0-0.76,0.2-1.36,0.61-1.8c0.64-0.68,1.81-0.99,3.41-0.9C45.98,38.21,49.52,38.23,49.57,40.13z"></path>
  <path fill="#4e5293" d="M41.23,47.22c-0.43-0.63-0.89-0.95-1.37-0.97h-0.04c-0.48,0.02-0.94,0.35-1.37,0.98c-0.86,1.26-1.55,3.77-1.09,5.07c0.04,0.05,0.35,0.56,0.93,0.68c0.07,0.01,0.16,0.02,0.25,0.02c0.24,0,0.56-0.07,0.9-0.32c0.25-0.19,0.56-0.19,0.81,0c0.46,0.34,0.88,0.35,1.14,0.3c0.59-0.12,0.9-0.62,0.94-0.68c0.02-0.03,0.03-0.06,0.04-0.09C42.79,50.99,42.09,48.48,41.23,47.22z M41.46,51.83c-0.05,0.06-0.15,0.16-0.26,0.19c-0.1,0.01-0.22-0.03-0.36-0.13c-0.6-0.45-1.39-0.45-1.99-0.01c-0.14,0.11-0.26,0.15-0.36,0.14c-0.11-0.02-0.21-0.13-0.25-0.19c-0.25-0.85,0.29-2.96,1.03-4.05c0.27-0.4,0.48-0.53,0.57-0.54c0.1,0.01,0.31,0.14,0.58,0.54C41.16,48.86,41.7,50.98,41.46,51.83z"></path>
  <path fill="#adb3c6" d="M41.46,51.83c-0.05,0.06-0.15,0.16-0.26,0.19c-0.1,0.01-0.22-0.03-0.36-0.13c-0.6-0.45-1.39-0.45-1.99-0.01c-0.14,0.11-0.26,0.15-0.36,0.14c-0.11-0.02-0.21-0.13-0.25-0.19c-0.25-0.85,0.29-2.96,1.03-4.05c0.27-0.4,0.48-0.53,0.57-0.54c0.1,0.01,0.31,0.14,0.58,0.54C41.16,48.86,41.7,50.98,41.46,51.83z"></path>
  <path fill="#4e5293" d="M46.24,57.23c0,0.27-0.22,0.49-0.49,0.49h-1.07v0.66c0,0.28-0.22,0.5-0.49,0.5c-0.28,0-0.5-0.22-0.5-0.5v-0.66h-1.18v0.66c0,0.28-0.22,0.5-0.49,0.5c-0.28,0-0.5-0.22-0.5-0.5v-0.66h-1.18v0.66c0,0.28-0.22,0.5-0.49,0.5c-0.28,0-0.5-0.22-0.5-0.5v-0.66h-1.18v0.66c0,0.28-0.22,0.5-0.49,0.5c-0.28,0-0.5-0.22-0.5-0.5v-0.66H36v0.66c0,0.28-0.22,0.5-0.49,0.5c-0.28,0-0.5-0.22-0.5-0.5v-0.66h-1.07c-0.27,0-0.49-0.22-0.49-0.49c0-0.27,0.22-0.49,0.49-0.49h1.07v-0.67c0-0.27,0.22-0.49,0.5-0.49c0.27,0,0.49,0.22,0.49,0.49v0.67h1.18v-0.67c0-0.27,0.22-0.49,0.5-0.49c0.27,0,0.49,0.22,0.49,0.49v0.67h1.18v-0.67c0-0.27,0.22-0.49,0.5-0.49c0.27,0,0.49,0.22,0.49,0.49v0.67h1.18v-0.67c0-0.27,0.22-0.49,0.5-0.49c0.27,0,0.49,0.22,0.49,0.49v0.67h1.18v-0.67c0-0.27,0.22-0.49,0.5-0.49c0.27,0,0.49,0.22,0.49,0.49v0.67h1.07C46.02,56.74,46.24,56.96,46.24,57.23z"></path>
</svg>
