<svg xmlns="http://www.w3.org/2000/svg" viewBox="0 0 512 512" id="lockers">
  <path fill="#5c6e84" d="M48.46,446.25h82.25v41.98c0,10.86-8.82,19.67-19.67,19.67h-42.91c-10.86,0-19.67-8.82-19.67-19.67v-41.98h0Z"></path>
  <path fill="#5c6e84" d="M400.96,446.25h42.91c10.86,0,19.67,8.82,19.67,19.67v41.98h-82.25v-41.98c0-10.86,8.82-19.67,19.67-19.67Z" transform="rotate(180 422.415 477.08)"></path>
  <path fill="#f57686" d="M56.63,4.09h398.74c31.25,0,56.63,25.37,56.63,56.63v343.82c0,31.25-25.37,56.63-56.63,56.63H56.63c-31.25,0-56.63-25.37-56.63-56.63V60.72C0,29.47,25.37,4.09,56.63,4.09Z"></path>
  <path fill="#f05267" d="M56.63,4.09C25.35,4.09,0,29.45,0,60.72v343.82c0,31.28,25.35,56.63,56.63,56.63h173.55C137.95,374.76,109.88,146.4,160.67,4.09H56.63Z"></path>
  <rect width="193.2" height="302.31" x="37.9" y="113.68" fill="#eeecff" rx="23.33" ry="23.33"></rect>
  <path fill="#d3d3ff" d="M61.23,415.99h133.31c-46.03-76.59-66.11-195.99-56.64-302.31H61.23c-12.89,0-23.33,10.45-23.33,23.33v255.65c0,12.89,10.45,23.33,23.33,23.33Z"></path>
  <path fill="#b3b6eb" d="M179.07 171.96h-89.14c-3.31 0-6-2.69-6-6s2.69-6 6-6h89.14c3.31 0 6 2.69 6 6s-2.69 6-6 6zM179.07 212.28h-89.14c-3.31 0-6-2.69-6-6s2.69-6 6-6h89.14c3.31 0 6 2.69 6 6s-2.69 6-6 6z"></path>
  <rect width="33.54" height="55.3" x="162.3" y="256.18" fill="#4f93f0" rx="12.12" ry="12.12"></rect>
  <rect width="193.2" height="302.31" x="280.9" y="113.68" fill="#eeecff" rx="23.33" ry="23.33"></rect>
  <path fill="#b3b6eb" d="M422.07 171.96h-89.14c-3.31 0-6-2.69-6-6s2.69-6 6-6h89.14c3.31 0 6 2.69 6 6s-2.69 6-6 6zM422.07 212.28h-89.14c-3.31 0-6-2.69-6-6s2.69-6 6-6h89.14c3.31 0 6 2.69 6 6s-2.69 6-6 6z"></path>
  <rect width="33.54" height="55.3" x="405.3" y="256.18" fill="#4f93f0" rx="12.12" ry="12.12"></rect>
  <g>
    <circle cx="196.36" cy="48.23" r="10.24" fill="#2f445e" transform="rotate(-9.22 196.33 48.223)"></circle>
    <circle cx="315.64" cy="48.23" r="10.24" fill="#2f445e" transform="rotate(-80.66 315.66 48.22)"></circle>
    <path fill="#2f445e" d="M256,78.15c-9.13,0-17.84-3.27-25.18-9.44-2.54-2.13-2.86-5.92-.73-8.45,2.13-2.54,5.92-2.86,8.45-.73,5.15,4.34,11.19,6.63,17.46,6.63s12.3-2.29,17.46-6.63c2.54-2.13,6.32-1.81,8.45.73,2.13,2.54,1.81,6.32-.73,8.45-7.34,6.18-16.05,9.44-25.18,9.44Z"></path>
  </g>
</svg>